<svg width="472" height="457" viewBox="0 0 472 457" fill="none" xmlns="http://www.w3.org/2000/svg">
<g opacity="0.35">
<path d="M465.007 173.702C468.837 226.697 378.708 276.4 263.698 284.717C148.689 293.034 52.3511 256.816 48.5217 203.821C44.6924 150.826 134.822 101.123 249.831 92.8062C364.84 84.4891 461.178 120.707 465.007 173.702Z" stroke="#FF7E35" stroke-width="0.8" stroke-miterlimit="10"/>
<path d="M457.374 184.775C458.876 236.589 368.922 281.238 256.454 284.502C143.987 287.766 51.5965 248.409 50.0939 196.596C48.5913 144.782 138.546 100.133 251.013 96.8685C363.48 93.6043 455.871 132.961 457.374 184.775Z" stroke="#FF7E35" stroke-width="0.8" stroke-miterlimit="10"/>
<path d="M252.23 100.89C362.135 102.671 450.566 145.166 449.746 195.805C448.925 246.444 359.165 286.051 249.26 284.269C139.355 282.488 50.9237 239.993 51.7438 189.354C52.5639 138.715 142.324 99.1084 252.23 100.89Z" stroke="#FF7E35" stroke-width="0.8" stroke-miterlimit="10"/>
<path d="M253.394 104.916C360.746 111.739 445.226 157.367 442.085 206.829C438.944 256.292 349.372 290.859 242.02 284.036C134.667 277.214 50.1875 231.586 53.3284 182.123C56.4694 132.66 146.042 98.0936 253.394 104.916Z" stroke="#FF7E35" stroke-width="0.8" stroke-miterlimit="10"/>
<path d="M254.568 108.981C359.374 120.853 439.907 169.613 434.443 217.89C428.979 266.167 339.587 295.679 234.781 283.808C129.975 271.936 49.4423 223.176 54.9062 174.899C60.3701 126.622 149.762 97.1099 254.568 108.981Z" stroke="#FF7E35" stroke-width="0.8" stroke-miterlimit="10"/>
<path d="M255.748 112.983C358.002 129.904 434.58 181.814 426.789 228.927C418.999 276.04 329.791 300.516 227.538 283.595C125.284 266.673 48.7067 214.763 56.4968 167.65C64.287 120.537 153.495 96.0614 255.748 112.983Z" stroke="#FF7E35" stroke-width="0.8" stroke-miterlimit="10"/>
<path d="M256.929 117.036C356.637 139.006 429.27 194.047 419.158 239.973C409.047 285.899 320.021 305.319 220.313 283.349C120.605 261.379 47.9728 206.339 58.0841 160.413C68.1954 114.487 157.221 95.0664 256.929 117.036Z" stroke="#FF7E35" stroke-width="0.8" stroke-miterlimit="10"/>
<path d="M258.116 121.044C355.265 148.057 423.94 206.24 411.504 250.999C399.069 295.758 310.232 310.144 213.083 283.131C115.933 256.118 47.2589 197.935 59.6944 153.176C72.1299 108.417 160.966 94.0312 258.116 121.044Z" stroke="#FF7E35" stroke-width="0.8" stroke-miterlimit="10"/>
<path d="M259.297 125.114C353.885 157.175 418.601 218.489 403.844 262.062C389.086 305.634 300.444 314.965 205.855 282.904C111.267 250.842 46.5508 189.528 61.3082 145.956C76.0657 102.383 164.708 93.0518 259.297 125.114Z" stroke="#FF7E35" stroke-width="0.8" stroke-miterlimit="10"/>
<path d="M260.482 129.141C352.525 166.252 413.295 230.706 396.214 273.104C379.134 315.503 290.671 319.79 198.628 282.679C106.584 245.569 45.8149 181.115 62.8953 138.716C79.9758 96.318 168.438 92.0311 260.482 129.141Z" stroke="#FF7E35" stroke-width="0.8" stroke-miterlimit="10"/>
<path d="M261.668 133.16C351.155 175.314 407.967 242.911 388.56 284.141C369.154 325.371 280.878 324.622 191.391 282.468C101.904 240.313 45.0919 172.717 64.4984 131.487C83.9048 90.2565 172.181 91.0055 261.668 133.16Z" stroke="#FF7E35" stroke-width="0.8" stroke-miterlimit="10"/>
<path d="M262.858 137.192C349.794 184.393 402.653 255.127 380.923 295.182C359.194 335.236 271.103 329.443 184.168 282.242C97.2327 235.041 44.3732 164.307 66.1029 124.252C87.8327 84.198 175.923 89.9913 262.858 137.192Z" stroke="#FF7E35" stroke-width="0.8" stroke-miterlimit="10"/>
<path d="M264.04 141.252C348.422 193.502 397.332 267.369 373.283 306.238C349.234 345.107 261.334 334.26 176.951 282.01C92.5693 229.76 43.6593 155.893 67.7081 117.024C91.7569 78.1544 179.658 89.0016 264.04 141.252Z" stroke="#FF7E35" stroke-width="0.8" stroke-miterlimit="10"/>
<path d="M265.224 145.28C347.061 202.578 392.027 279.584 365.658 317.277C339.288 354.97 251.569 339.076 169.732 281.778C87.8942 224.479 42.9283 147.474 69.2976 109.781C95.667 72.0879 183.386 87.9813 265.224 145.28Z" stroke="#FF7E35" stroke-width="0.8" stroke-miterlimit="10"/>
<path d="M266.4 149.334C345.685 211.682 386.694 291.832 357.997 328.354C329.299 364.877 241.763 343.942 162.478 281.594C83.1936 219.247 42.1845 139.097 70.8818 102.574C99.5791 66.0516 187.116 86.9869 266.4 149.334Z" stroke="#FF7E35" stroke-width="0.8" stroke-miterlimit="10"/>
<path d="M267.533 153.349C344.27 220.74 381.339 304.02 350.328 339.36C319.317 374.7 231.97 348.719 155.232 281.328C78.4949 213.937 41.4262 130.657 72.437 95.3167C103.448 59.9762 190.795 85.9581 267.533 153.349Z" stroke="#FF7E35" stroke-width="0.8" stroke-miterlimit="10"/>
<path d="M268.718 157.398C342.896 229.832 376.008 316.244 342.677 350.405C309.345 384.566 222.192 353.54 148.015 281.106C73.8373 208.672 40.7249 122.259 74.0562 88.0981C107.388 53.937 194.541 84.9635 268.718 157.398Z" stroke="#FF7E35" stroke-width="0.8" stroke-miterlimit="10"/>
<path d="M269.925 161.418C341.557 238.905 370.719 328.465 335.06 361.456C299.402 394.447 212.425 358.377 140.793 280.89C69.1605 203.403 39.9983 113.843 75.6572 80.8516C111.316 47.8604 198.293 83.9313 269.925 161.418Z" stroke="#FF7E35" stroke-width="0.8" stroke-miterlimit="10"/>
<path d="M271.08 165.464C340.158 247.992 365.374 340.681 327.402 372.49C289.431 404.299 202.649 363.182 133.571 280.653C64.4933 198.125 39.2767 105.436 77.2486 73.6268C115.22 41.8181 202.002 82.9348 271.08 165.464Z" stroke="#FF7E35" stroke-width="0.8" stroke-miterlimit="10"/>
<path d="M272.273 169.491C338.802 257.066 360.07 352.895 319.775 383.53C279.481 414.166 192.884 368.007 126.355 280.432C59.8261 192.856 38.5586 97.028 78.8527 66.3927C119.147 35.7574 205.744 81.9162 272.273 169.491Z" stroke="#FF7E35" stroke-width="0.8" stroke-miterlimit="10"/>
<path d="M273.448 173.527C337.42 266.141 354.734 365.101 312.119 394.56C269.505 424.019 183.1 372.822 119.128 280.208C55.156 187.594 37.8421 88.6344 80.4563 59.1754C123.07 29.7163 209.476 80.9135 273.448 173.527Z" stroke="#FF7E35" stroke-width="0.8" stroke-miterlimit="10"/>
<path d="M274.628 177.566C336.046 275.229 349.404 377.33 304.464 405.615C259.523 433.9 173.302 377.658 111.884 279.995C50.4652 182.332 37.107 80.2306 82.0474 51.9456C126.988 23.6606 213.209 79.9027 274.628 177.566Z" stroke="#FF7E35" stroke-width="0.8" stroke-miterlimit="10"/>
</g>
</svg>
